<?xml version="1.0" encoding="UTF-8" standalone="no"?>
<!-- Created with Inkscape (http://www.inkscape.org/) -->

<svg
   xmlns:dc="http://purl.org/dc/elements/1.1/"
   xmlns:cc="http://creativecommons.org/ns#"
   xmlns:rdf="http://www.w3.org/1999/02/22-rdf-syntax-ns#"
   xmlns:svg="http://www.w3.org/2000/svg"
   xmlns="http://www.w3.org/2000/svg"
   xmlns:inkscape="http://www.inkscape.org/namespaces/inkscape"
   version="1.1"
   width="371.25"
   height="105"
   id="svg2"
   xml:space="preserve"><metadata
     id="metadata8"><rdf:RDF><cc:Work
         rdf:about=""><dc:format>image/svg+xml</dc:format><dc:type
           rdf:resource="http://purl.org/dc/dcmitype/StillImage" /></cc:Work></rdf:RDF></metadata><defs
     id="defs6" /><g
     transform="matrix(1.25,0,0,-1.25,0,105)"
     id="g10"><g
       transform="scale(0.1,0.1)"
       id="g12"><path
         d="M 483.98,103.738 C 267.34,150.73 146.988,212.41 123.012,288.738 98.6719,364.719 171.48,440.73 341.48,516.75 113.828,436.75 2.85156,353.898 8.51953,268.23 14.4883,182.879 136.328,114.051 373.98,61.75 536.328,29.3984 719.488,12.2188 923.52,10.2188 c 204.33,-1.98833 407.65,10 610,36.0195 202.3,26.332 382.14,65.1597 539.49,116.4807 42.34,14.031 80.66,28.519 115,43.519 -1.68,-0.66 -3.36,-1.168 -5,-1.519 C 2025.66,153.078 1845.82,114.25 1643.52,88.2305 1440.82,62.2188 1237.5,50.0703 1033.52,51.75 829.488,53.7383 646.328,71.0781 483.98,103.738"
         inkscape:connector-curvature="0"
         id="path14"
         style="fill:#457fbe;fill-opacity:1;fill-rule:evenodd;stroke:none" /><path
         d="m 2466.02,764.25 c -222.35,44.328 -473.52,67.809 -753.52,70.469 -279.65,2.691 -558.16,-13.828 -835.512,-49.5 C 599.34,749.559 352.852,696.551 137.5,626.238 87.5,609.25 41.6797,592.059 0,574.719 c 8.98047,3.359 18.1602,6.519 27.5,9.531 215.352,70.309 461.84,123.469 739.488,159.488 277.352,35.66 556.022,52.153 836.022,49.492 279.65,-2.652 530.66,-26.171 753.01,-70.511 300.31,-65.309 465.31,-151.168 495,-257.5 30,-106.321 -76.53,-211.989 -319.54,-316.989 301.02,108.989 445.67,221.329 434.03,336.989 -11.68,115.672 -178.17,208.679 -499.49,279.031"
         inkscape:connector-curvature="0"
         id="path16"
         style="fill:#add67d;fill-opacity:1;fill-rule:evenodd;stroke:none" /><path
         d="m 497.5,600.73 -105.469,0 0,-295 -37.5,0 0,295 -105.472,0 0,35 248.441,0 0,-35 z m 82.191,-295 -35,0 0,230 35,0 0,-230 z m -42.5,314.059 c 0,6.652 2.379,12.66 7.188,17.973 4.762,5.316 10.699,7.968 17.812,7.968 6.637,0 12.649,-2.652 17.969,-7.968 5.309,-5.313 7.961,-11.321 7.961,-17.973 0,-7.098 -2.652,-13.039 -7.961,-17.809 -5.32,-4.8 -11.332,-7.191 -17.969,-7.191 -7.113,0 -13.05,2.391 -17.812,7.191 -4.809,4.77 -7.188,10.711 -7.188,17.809 z m 243.239,-320 c -21.371,0 -39.692,4.77 -55,14.223 -15.309,9.457 -26.989,20.359 -35,32.66 l -2.032,0 -3.91,-40.942 -27.5,0 0,370 35,0 0,-182.968 c 4.262,14.258 13.75,26.25 28.442,35.937 14.691,9.692 32.851,14.531 54.531,14.531 17.578,0 33.051,-3.359 46.41,-10 13.32,-6.679 24.41,-15.582 33.277,-26.718 8.832,-11.172 15.512,-24.223 20,-39.223 4.454,-15 6.723,-30.699 6.723,-47.027 0,-16.051 -2.109,-31.321 -6.25,-45.782 -4.18,-14.492 -10.43,-27.261 -18.75,-38.281 -8.359,-10.937 -18.871,-19.758 -31.57,-26.41 -12.61,-6.641 -27.422,-10 -44.371,-10 z m -4.059,29.383 c 12.688,0 23.359,2.656 32.027,7.969 8.633,5.39 15.622,12.339 20.942,20.781 5.39,8.519 9.25,18.117 11.558,28.75 2.383,10.699 3.59,21.406 3.59,32.027 0,14.063 -1.789,26.922 -5.308,38.59 -3.559,11.652 -8.52,21.652 -14.84,30 -6.25,8.332 -14.07,14.77 -23.442,19.383 -9.296,4.687 -19.609,7.027 -30.937,7.027 -17.731,0 -33.672,-5.39 -47.813,-16.09 C 707.969,486.98 697.93,472.18 691.988,453.23 l 0,-73.441 c 9.571,-16.051 22.032,-28.508 37.352,-37.34 15.39,-8.871 31.09,-13.277 47.031,-13.277 z m 202.731,-23.442 -35,0 0,230 35,0 0,-230 z m -42.5,314.059 c 0,6.652 2.378,12.66 7.187,17.973 4.762,5.316 10.699,7.968 17.813,7.968 6.636,0 12.66,-2.652 17.968,-7.968 5.309,-5.313 7.969,-11.321 7.969,-17.973 0,-7.098 -2.66,-13.039 -7.969,-17.809 -5.308,-4.8 -11.332,-7.191 -17.968,-7.191 -7.114,0 -13.051,2.391 -17.813,7.191 -4.809,4.77 -7.187,10.711 -7.187,17.809 z m 387.808,-314.059 -4.06,40.942 -1.87,0 c -4.07,-6.25 -9.46,-12.274 -16.1,-17.973 -6.68,-5.621 -14.14,-10.621 -22.34,-15 -8.13,-4.301 -16.95,-7.66 -26.41,-10.16 -9.49,-2.5 -18.9,-3.75 -28.28,-3.75 -21.99,0 -38.51,6.41 -49.53,19.223 -10.94,12.816 -16.41,28.91 -16.41,48.277 0,18.949 4.85,34.109 14.54,45.473 9.68,11.328 21.48,19.847 35.46,25.468 13.95,5.629 28.68,9.258 44.22,10.942 15.51,1.637 29.1,2.5 40.78,2.5 l 22.5,0 0,6.09 c 0,12.578 -1.79,22.226 -5.31,28.91 -3.44,6.637 -8.51,12.34 -15.15,17.027 -5.75,3.629 -11.84,6.172 -18.29,7.66 -6.48,1.563 -15.07,2.34 -25.78,2.34 -13.98,0 -26.33,-1.828 -37.03,-5.469 -10.62,-3.671 -20.94,-8.511 -30.94,-14.531 l -7.96,30 c 22.26,13.012 48.94,19.531 80,19.531 12.26,0 23.9,-1.089 34.84,-3.281 11.01,-2.187 20.7,-5.937 29.06,-11.25 9.69,-5.937 17.35,-14.449 22.97,-25.469 5.7,-11.05 8.59,-24.691 8.59,-40.941 l 0,-156.559 -27.5,0 z m -88.43,23.442 c 13.63,0 28.12,4.297 43.43,12.969 15.32,8.75 27.82,21.289 37.5,37.648 l 0,46.41 -4.53,0 c -13.67,0 -27.3,-0.551 -40.93,-1.558 -13.68,-0.942 -26.1,-3.442 -37.35,-7.5 -11.17,-3.993 -20.23,-9.692 -27.19,-17.192 -6.99,-7.5 -10.46,-17.769 -10.46,-30.777 0,-12.934 3.51,-22.813 10.62,-29.692 7.19,-6.871 16.8,-10.308 28.91,-10.308 z m 276.48,-29.383 c -16.99,0 -31.84,3.359 -44.53,10 -12.62,6.652 -23.09,15.473 -31.41,26.41 -8.36,11.02 -14.61,23.789 -18.75,38.281 -4.18,14.461 -6.25,29.731 -6.25,45.782 0,16.328 2.23,32.027 6.72,47.027 4.46,15 11.14,28.051 20,39.223 8.83,11.136 19.92,20.039 33.28,26.718 13.32,6.641 28.79,10 46.41,10 22.38,0 40.7,-4.839 55,-14.531 14.37,-9.687 23.67,-21.679 27.97,-35.937 l 0,182.968 35,0 0,-370 -27.5,0 -3.91,40.942 -2.03,0 c -8.05,-12.301 -19.69,-23.203 -35,-32.66 -15.31,-9.453 -33.67,-14.223 -55,-14.223 z m 4.06,29.383 c 15.94,0 31.64,4.297 47.19,12.969 15.51,8.75 27.89,21.289 37.19,37.648 l 0,73.441 c -5.94,18.95 -16.02,33.75 -30.16,44.379 -14.18,10.7 -30.12,16.09 -47.81,16.09 -11.68,0 -22.11,-2.34 -31.25,-7.027 -9.18,-4.613 -16.95,-11.051 -23.28,-19.383 -6.25,-8.348 -11.17,-18.348 -14.69,-30 -3.55,-11.668 -5.31,-24.527 -5.31,-38.59 0,-10.621 1.13,-21.328 3.44,-32.027 2.38,-10.633 6.25,-20.231 11.56,-28.75 5.39,-8.442 12.42,-15.391 21.09,-20.781 8.63,-5.313 19.3,-7.969 32.03,-7.969 z m 311.53,-23.442 -44.53,0 -104.54,230 38.13,0 89.37,-197.031 89.54,197.031 36.56,0 -104.53,-230 z m 182.3,0 -35,0 0,230 35,0 0,-230 z m -42.5,314.059 c 0,6.652 2.38,12.66 7.19,17.973 4.76,5.316 10.7,7.968 17.81,7.968 6.64,0 12.66,-2.652 17.97,-7.968 5.31,-5.313 7.97,-11.321 7.97,-17.973 0,-7.098 -2.66,-13.039 -7.97,-17.809 -5.31,-4.8 -11.33,-7.191 -17.97,-7.191 -7.11,0 -13.05,2.391 -17.81,7.191 -4.81,4.77 -7.19,10.711 -7.19,17.809 z m 222.77,-76.559 c 29.26,0 51.92,-7.46 67.97,-22.339 16.02,-14.813 24.07,-35.7 24.07,-62.661 0,-5.621 -0.39,-11.359 -1.1,-17.191 -0.62,-5.848 -1.79,-10.109 -3.44,-12.809 l -168.59,0 0,-5 c 0,-12.73 1.64,-24.921 5,-36.558 3.32,-11.684 8.32,-21.992 15,-30.942 6.64,-8.98 15.08,-16.171 25.31,-21.558 10.2,-5.313 22.27,-7.973 36.25,-7.973 8.01,0 15.82,0.86 23.44,2.66 7.7,1.871 15.04,4.219 22.03,7.032 6.96,2.89 13.48,6.007 19.53,9.371 6.02,3.316 11.33,6.636 15.94,10 l 6.09,-28.59 c -4.37,-2.621 -9.76,-5.551 -16.09,-8.75 -6.25,-3.133 -13.24,-6.051 -20.94,-8.75 -7.73,-2.621 -16.17,-4.774 -25.31,-6.563 -9.18,-1.879 -18.75,-2.82 -28.75,-2.82 -18.67,0 -35.15,3.25 -49.53,9.691 -14.3,6.45 -26.25,15.239 -35.94,26.411 -9.68,11.25 -17.03,24.14 -22.03,38.75 -5,14.687 -7.5,30.039 -7.5,46.089 0,16.329 2.58,31.918 7.81,46.719 5.2,14.879 12.82,27.973 22.82,39.223 10,11.328 22.38,20.226 37.18,26.719 14.77,6.558 31.72,9.839 50.78,9.839 z m -1.56,-27.968 c -21.99,0 -39.06,-5.782 -51.25,-17.34 -12.19,-11.481 -20.43,-25.863 -24.69,-43.133 l 136.41,0 c 0.39,1.652 0.63,3.133 0.63,4.383 0,1.328 0,2.848 0,4.527 0,8.321 -1.68,15.699 -5,22.192 -3.36,6.558 -7.89,11.949 -13.6,16.25 -5.62,4.371 -12.15,7.648 -19.53,9.839 -7.3,2.192 -14.96,3.282 -22.97,3.282 z m 223.91,0 c -16.06,0 -27.66,-2.934 -34.85,-8.75 -7.18,-5.864 -10.78,-13.75 -10.78,-23.75 0,-3.364 0.51,-6.871 1.57,-10.621 1.01,-3.672 2.97,-7.032 5.78,-10.161 2.81,-3.121 6.6,-6.171 11.4,-9.058 4.89,-2.813 11.33,-5.082 19.38,-6.723 l 35.47,-7.969 c 13.94,-3.039 25.15,-7.152 33.59,-12.339 8.52,-5.121 15.16,-10.7 19.85,-16.719 4.68,-5.942 7.73,-12.031 9.21,-18.281 1.57,-6.172 2.35,-11.879 2.35,-17.192 0,-10.308 -2.11,-20 -6.25,-29.058 -4.18,-8.993 -10.24,-16.801 -18.13,-23.442 -7.81,-6.679 -17.42,-11.871 -28.75,-15.621 -11.25,-3.828 -23.9,-5.789 -37.97,-5.789 -17.61,0 -33.9,2.582 -48.9,7.66 -15,5.199 -27.03,10.981 -36.1,17.34 l 9.07,32.5 c 11.95,-11.051 25.31,-19.059 40,-24.059 14.68,-5 27.85,-7.5 39.53,-7.5 16.64,0 29.29,4.059 37.97,12.192 8.63,8.199 12.97,16.797 12.97,25.777 0,3.012 -0.16,6.449 -0.47,10.313 -0.32,3.828 -1.68,7.738 -4.07,11.718 -2.3,3.95 -5.78,7.7 -10.46,11.25 -4.69,3.52 -11.37,6.29 -20,8.282 l -47.97,12.027 c -11.06,2.582 -20.08,6.02 -27.03,10.32 -7,4.371 -12.5,9.141 -16.57,14.371 -3.98,5.2 -6.79,10.711 -8.43,16.559 -1.68,5.832 -2.5,11.723 -2.5,17.66 0,20.313 7.53,36.563 22.65,48.75 15.2,12.192 35.51,18.281 60.94,18.281 12.89,0 26.87,-1.789 41.87,-5.308 15,-3.442 27.7,-8.524 38.13,-15.16 l -9.53,-30 c -6.68,5.629 -16.64,10.777 -29.85,15.468 -13.12,4.692 -27.5,7.032 -43.12,7.032"
         inkscape:connector-curvature="0"
         id="path18"
         style="fill:#5482bd;fill-opacity:1;fill-rule:nonzero;stroke:none" /></g></g></svg>